<svg xmlns="http://www.w3.org/2000/svg" viewBox="0 0 331.13 343.17"><defs><style>.cls-1{isolation:isolate;}.cls-2{fill:#fbcb00;}.cls-3{fill:#a91212;}.cls-4{fill:#e4472e;}.cls-5{fill:#fff;}.cls-6{fill:#f5ba8a;}.cls-7{fill:#1f6b66;}.cls-8{fill:#4cb5b1;}.cls-18,.cls-9{opacity:0.5;}.cls-10{fill:#541c0a;}.cls-11{fill:#a96330;}.cls-12,.cls-18{fill:#ebe3d2;}.cls-13{fill:#c3ad8a;}.cls-14{fill:#c7763e;}.cls-15{fill:#d8c7b6;}.cls-16{fill:#c3682b;}.cls-17{fill:#d98851;}.cls-18,.cls-25{mix-blend-mode:soft-light;}.cls-19{fill:#515a62;}.cls-20{fill:#383c40;}.cls-21{fill:#808890;}.cls-22{fill:#b8bdc4;}.cls-23{fill:#757f88;opacity:0.37;mix-blend-mode:multiply;}.cls-24{fill:#ec8b89;}.cls-25{fill:#f6f5f5;}</style></defs><g class="cls-1"><g id="Capa_1" data-name="Capa 1"><circle class="cls-2" cx="212.6" cy="206.58" r="165.56" transform="translate(-130.84 169.82) rotate(-45)"/><path class="cls-3" d="M305.68,144c5.4,28.41-37.58,60.46-96,71.58S99.49,212.7,94.08,184.29s37.58-60.46,96-71.58S300.27,115.61,305.68,144Z" transform="translate(-47.04 -41.01)"/><path class="cls-4" d="M290.85,149.24c4.83,25.39-33.58,54-85.8,64s-98.45-2.6-103.28-28,33.57-54,85.79-64S286,123.85,290.85,149.24Z" transform="translate(-47.04 -41.01)"/><path class="cls-5" d="M126.35,139.14a4.71,4.71,0,0,1,4.7-4.69h20.88a18.9,18.9,0,0,1,8.18,1.72,20.1,20.1,0,0,1,6.25,4.52,21,21,0,0,1,4,6.3,18.3,18.3,0,0,1,1.43,7,19.35,19.35,0,0,1-1.43,7.25A19.68,19.68,0,0,1,160.11,172a19.33,19.33,0,0,1-8.18,1.68h-9.31v16.77a4.51,4.51,0,0,1-1.38,3.31,4.56,4.56,0,0,1-3.32,1.39h-6.87a4.56,4.56,0,0,1-3.32-1.39,4.51,4.51,0,0,1-1.38-3.31Zm16.27,19h8.55a3.66,3.66,0,0,0,2.65-1.22,4,4,0,0,0,1.21-3,3.78,3.78,0,0,0-1.13-2.81,3.69,3.69,0,0,0-2.73-1.14h-8.55Z" transform="translate(-47.04 -41.01)"/><path class="cls-5" d="M213.48,134.45a4.71,4.71,0,0,1,4.7,4.69v6.21a4.71,4.71,0,0,1-4.7,4.69H190.25v6.13h21.64a4.58,4.58,0,0,1,4.61,4.61V167a4.61,4.61,0,0,1-1.34,3.31,4.37,4.37,0,0,1-3.27,1.38H190.25v8h24.49a4.59,4.59,0,0,1,3.31,1.34,4.38,4.38,0,0,1,1.39,3.27v6.21a4.75,4.75,0,0,1-4.7,4.7H178.68a4.56,4.56,0,0,1-3.32-1.39,4.51,4.51,0,0,1-1.38-3.31V139.14a4.71,4.71,0,0,1,4.7-4.69Z" transform="translate(-47.04 -41.01)"/><path class="cls-5" d="M267.91,134.45a4.71,4.71,0,0,1,4.7,4.69v6.21a4.71,4.71,0,0,1-4.7,4.69H256.17v40.43a4.51,4.51,0,0,1-1.38,3.31,4.56,4.56,0,0,1-3.32,1.39H244.6a4.56,4.56,0,0,1-3.32-1.39,4.51,4.51,0,0,1-1.38-3.31V150H228.16a4.73,4.73,0,0,1-4.7-4.69v-6.21a4.73,4.73,0,0,1,4.7-4.69Z" transform="translate(-47.04 -41.01)"/><path class="cls-6" d="M140.69,191.58h-6.88a4.75,4.75,0,0,1-4.7-4.7V135.55a5.67,5.67,0,0,1,.06-.72,4.74,4.74,0,0,0-1.44,1,4.53,4.53,0,0,0-1.38,3.31v51.33a4.51,4.51,0,0,0,1.38,3.31,4.56,4.56,0,0,0,3.32,1.39h6.87a4.56,4.56,0,0,0,3.32-1.39,4.5,4.5,0,0,0,1.32-2.59A4.64,4.64,0,0,1,140.69,191.58Z" transform="translate(-47.04 -41.01)"/><path class="cls-6" d="M156.58,153.37a4,4,0,0,0,1.22-3,3.79,3.79,0,0,0-1.14-2.81,3.69,3.69,0,0,0-2.72-1.14h-6.67c-3.58,0-4.61,3.59-4.61,3.59h8.51a3.69,3.69,0,0,1,2.73,1.14A3.78,3.78,0,0,1,155,154a3,3,0,0,1,0,.42A4.3,4.3,0,0,0,156.58,153.37Z" transform="translate(-47.04 -41.01)"/><path class="cls-6" d="M162.87,168.43a19.33,19.33,0,0,1-8.18,1.68h-7.27c-3.11,0-4.82,3.59-4.82,3.59h9.33a19.33,19.33,0,0,0,8.18-1.68,20,20,0,0,0,6.25-4.44,20.88,20.88,0,0,0,2.55-3.39A19.86,19.86,0,0,1,162.87,168.43Z" transform="translate(-47.04 -41.01)"/><path class="cls-6" d="M214.65,168.09H196.41c-3.87,0-6.11,3.59-6.11,3.59h21.59a4.37,4.37,0,0,0,3.27-1.38,4.57,4.57,0,0,0,1.28-2.56A4.57,4.57,0,0,1,214.65,168.09Z" transform="translate(-47.04 -41.01)"/><path class="cls-6" d="M217.5,191.58H181.44a4.75,4.75,0,0,1-4.7-4.7V135.55a5.67,5.67,0,0,1,.06-.72,4.74,4.74,0,0,0-1.44,1,4.53,4.53,0,0,0-1.38,3.31v51.33a4.51,4.51,0,0,0,1.38,3.31,4.56,4.56,0,0,0,3.32,1.39h36.06a4.52,4.52,0,0,0,3.31-1.39,4.45,4.45,0,0,0,1.33-2.59A4.68,4.68,0,0,1,217.5,191.58Z" transform="translate(-47.04 -41.01)"/><path class="cls-6" d="M194.48,146.45c-2.63,0-4.15,3.59-4.15,3.59h23.15a4.55,4.55,0,0,0,3.32-1.38,4.5,4.5,0,0,0,1.32-2.59,4.63,4.63,0,0,1-1.87.38Z" transform="translate(-47.04 -41.01)"/><path class="cls-6" d="M254.24,191.58h-6.88a4.75,4.75,0,0,1-4.7-4.7V146.45H230.92a4.73,4.73,0,0,1-4.7-4.69v-6.21a5.67,5.67,0,0,1,.06-.72,4.58,4.58,0,0,0-1.43,1,4.5,4.5,0,0,0-1.39,3.31v6.21a4.73,4.73,0,0,0,4.7,4.69H239.9v40.43a4.51,4.51,0,0,0,1.38,3.31,4.56,4.56,0,0,0,3.32,1.39h6.87a4.56,4.56,0,0,0,3.32-1.39,4.5,4.5,0,0,0,1.32-2.59A4.64,4.64,0,0,1,254.24,191.58Z" transform="translate(-47.04 -41.01)"/><path class="cls-6" d="M270.67,146.45H260.21c-2.69,0-3.83,3.59-3.83,3.59h11.53a4.55,4.55,0,0,0,3.32-1.38,4.5,4.5,0,0,0,1.32-2.59A4.64,4.64,0,0,1,270.67,146.45Z" transform="translate(-47.04 -41.01)"/><path class="cls-7" d="M301.88,227.05a25.89,25.89,0,0,0,5.46-8.46,28.64,28.64,0,0,0-1.53-24.24,21.42,21.42,0,0,0-7.62-8.41,18.34,18.34,0,0,0-9.74-2.68c-9,0-18.18,6-23.63,11.28a87.72,87.72,0,0,1-13.9,3.24H116.18a20.42,20.42,0,0,0-2.14-2.66c-5.35-5.47-14.9-11.86-24.2-11.86a18.34,18.34,0,0,0-9.74,2.68,21.42,21.42,0,0,0-7.62,8.41A28.64,28.64,0,0,0,71,218.59a25.89,25.89,0,0,0,5.46,8.46A25.89,25.89,0,0,0,71,235.51a28.64,28.64,0,0,0,1.53,24.24,21.52,21.52,0,0,0,7.62,8.42,18.42,18.42,0,0,0,9.74,2.67c9.3,0,18.85-6.39,24.2-11.85a22.07,22.07,0,0,0,2-2.49c0-.05.09-.12.14-.18H262.11a21.15,21.15,0,0,0,2.14,2.67c5.35,5.46,14.9,11.85,24.2,11.85a18.42,18.42,0,0,0,9.74-2.67,21.52,21.52,0,0,0,7.62-8.42,28.64,28.64,0,0,0,1.53-24.24A25.89,25.89,0,0,0,301.88,227.05Z" transform="translate(-47.04 -41.01)"/><path class="cls-8" d="M290.14,227.05c11.05-3.63,16.4-17.7,10-29.66-8.07-15.08-24.72-4.47-31.28,2.23-1.69,1.73-15.75,4.61-17.81,4.61H114.11c-1.94,0-3-2.88-4.67-4.61-6.56-6.7-23.21-17.31-31.28-2.23-6.41,12-1.06,26,10,29.66-11.05,3.63-16.4,17.7-10,29.66,8.07,15.08,24.72,4.47,31.28-2.23,1.69-1.73,2.91-4.61,5-4.61H264.18c1.94,0,3,2.88,4.67,4.61,6.56,6.7,23.21,17.31,31.28,2.23C306.54,244.75,301.19,230.68,290.14,227.05Z" transform="translate(-47.04 -41.01)"/><path class="cls-5" d="M153.19,231.37a10.86,10.86,0,0,0-1.8-3.15,10,10,0,0,0-2.72-2.33,41.42,41.42,0,0,0-5.86-2.52l-1.7-.48-1.81-.46a11.18,11.18,0,0,1-1.72-.61,4.15,4.15,0,0,1-1.3-.86,1.72,1.72,0,0,1-.51-1.27c0-.58.38-1,1.12-1.19a8.62,8.62,0,0,1,2.44-.33c1,0,3.81.58,3.81,2.41,0,1.5.79,1.81,1.5,1.81h6.71a2,2,0,0,0,1.59-1.81,10.17,10.17,0,0,0-.61-3.3,11.23,11.23,0,0,0-2.16-4.11A11.71,11.71,0,0,0,146,210a15.59,15.59,0,0,0-6.65-1.25,17.67,17.67,0,0,0-5,.71,13.43,13.43,0,0,0-4.27,2.11,10.92,10.92,0,0,0-3,3.45,9.46,9.46,0,0,0-1.15,4.7,11.1,11.1,0,0,0,1,4.93,11,11,0,0,0,2.69,3.53,14.78,14.78,0,0,0,3.81,2.36,24.77,24.77,0,0,0,4.42,1.42c.64.14,1.33.3,2,.48a13.14,13.14,0,0,1,2,.69,4.89,4.89,0,0,1,1.5,1,1.91,1.91,0,0,1,.58,1.4,1.79,1.79,0,0,1-1.29,1.8,8.9,8.9,0,0,1-3.08.48c-1.42,0-4.67-.77-4.67-3.15a2.85,2.85,0,0,0-2.84-2.84H128a2.85,2.85,0,0,0-2.84,2.84c0,2.1.41,2.54,1.22,4.27a14,14,0,0,0,3.22,4.42,14.77,14.77,0,0,0,4.62,2.84,15,15,0,0,0,5.46,1,23,23,0,0,0,5.69-.66,12.61,12.61,0,0,0,4.5-2.09,9.6,9.6,0,0,0,3-3.63,12.21,12.21,0,0,0,1.06-5.35A11.83,11.83,0,0,0,153.19,231.37Z" transform="translate(-47.04 -41.01)"/><path class="cls-5" d="M163.4,209.58a2.67,2.67,0,0,1,2,.84,2.76,2.76,0,0,1,.82,2v9.8h10v-9.8a2.76,2.76,0,0,1,.82-2,2.67,2.67,0,0,1,2-.84h4.16a2.87,2.87,0,0,1,2.85,2.85v31.08a2.74,2.74,0,0,1-.84,2,2.77,2.77,0,0,1-2,.83H179a2.7,2.7,0,0,1-2-.83,2.76,2.76,0,0,1-.82-2V231.68h-10v11.83a2.76,2.76,0,0,1-.82,2,2.7,2.7,0,0,1-2,.83h-4.17a2.85,2.85,0,0,1-2.84-2.84V212.43a2.87,2.87,0,0,1,2.84-2.85Z" transform="translate(-47.04 -41.01)"/><path class="cls-5" d="M229,212.43a2.87,2.87,0,0,1,2.85-2.85h12.64a11.45,11.45,0,0,1,5,1,12,12,0,0,1,3.78,2.74,12.58,12.58,0,0,1,2.44,3.81,11.19,11.19,0,0,1,.86,4.24,11.83,11.83,0,0,1-.86,4.39,12.06,12.06,0,0,1-6.22,6.53,11.88,11.88,0,0,1-5,1h-5.63v10.16a2.74,2.74,0,0,1-.84,2,2.77,2.77,0,0,1-2,.83H231.8a2.77,2.77,0,0,1-2-.83,2.74,2.74,0,0,1-.84-2ZM238.81,224H244a2.25,2.25,0,0,0,1.6-.74,2.44,2.44,0,0,0,.73-1.8,2.28,2.28,0,0,0-.68-1.7A2.25,2.25,0,0,0,244,219h-5.18Z" transform="translate(-47.04 -41.01)"/><g class="cls-9"><path class="cls-8" d="M148,244.24a22.46,22.46,0,0,1-5.68.67,15.11,15.11,0,0,1-10.09-3.86,14.08,14.08,0,0,1-3.22-4.42c-.81-1.73-1.22-2.17-1.22-4.27a3.07,3.07,0,0,1,0-.53,2.86,2.86,0,0,0-2.69,2.84c0,2.1.41,2.54,1.22,4.27a14,14,0,0,0,3.22,4.42,14.77,14.77,0,0,0,4.62,2.84,15,15,0,0,0,5.46,1,23,23,0,0,0,5.69-.66,12.61,12.61,0,0,0,4.5-2.09,9.72,9.72,0,0,0,1.78-1.73A12.78,12.78,0,0,1,148,244.24Z" transform="translate(-47.04 -41.01)"/><path class="cls-8" d="M145.78,218.27c0-1.83-2.83-2.41-3.81-2.41a7.07,7.07,0,0,0-2.44.33,4.87,4.87,0,0,0-3,2.44,9.27,9.27,0,0,1,2.81-.46c.95,0,3.64.55,3.79,2.26,0,.27-.13,1.95,1.57,1.95h6.66a2,2,0,0,0,1.59-1.81c0-.18,0-.35,0-.5h-5.65C146.57,220.08,145.78,219.77,145.78,218.27Z" transform="translate(-47.04 -41.01)"/><path class="cls-8" d="M129.63,228.2a14.87,14.87,0,0,0,1.8,1.32,22.26,22.26,0,0,0,3.17,1.54,22.87,22.87,0,0,0,3.26.92c.64.14,1.33.3,2,.48a13.14,13.14,0,0,1,2,.69,4.89,4.89,0,0,1,1.5,1,1.93,1.93,0,0,1,.57,1.24,7.72,7.72,0,0,0,1.36-.35,1.79,1.79,0,0,0,1.29-1.81,1.89,1.89,0,0,0-.58-1.39,4.89,4.89,0,0,0-1.5-1,13.14,13.14,0,0,0-2-.69c-.72-.18-1.41-.35-2.05-.48a24.77,24.77,0,0,1-4.42-1.42,14.78,14.78,0,0,1-3.81-2.36,11,11,0,0,1-2.69-3.53,11.1,11.1,0,0,1-1-4.93,9.43,9.43,0,0,1,1.15-4.7,9.92,9.92,0,0,1,1.16-1.69,8.87,8.87,0,0,0-.81.55,10.92,10.92,0,0,0-3,3.45,9.46,9.46,0,0,0-1.15,4.7,11.1,11.1,0,0,0,1,4.93A11,11,0,0,0,129.63,228.2Z" transform="translate(-47.04 -41.01)"/><path class="cls-8" d="M178.87,219.92v-9.8a3.07,3.07,0,0,1,0-.53,2.66,2.66,0,0,0-1.87.83,2.76,2.76,0,0,0-.82,2v9.84S178.87,221.25,178.87,219.92Z" transform="translate(-47.04 -41.01)"/><path class="cls-8" d="M185.85,244h-4.17a2.67,2.67,0,0,1-2-.84,2.74,2.74,0,0,1-.82-2V229.37h-10c-1.74,0-2.59,2.31-2.59,2.31h10v11.83a2.76,2.76,0,0,0,.82,2,2.7,2.7,0,0,0,2,.83h4.16A2.86,2.86,0,0,0,186,244Z" transform="translate(-47.04 -41.01)"/><path class="cls-8" d="M166,244h-4.16A2.87,2.87,0,0,1,159,241.2V210.12a3.07,3.07,0,0,1,.05-.53,2.86,2.86,0,0,0-2.69,2.84v31.08a2.85,2.85,0,0,0,2.84,2.84h4.17a2.7,2.7,0,0,0,2-.83,2.73,2.73,0,0,0,.77-1.48Z" transform="translate(-47.04 -41.01)"/><path class="cls-8" d="M246.63,221.65a2.25,2.25,0,0,0,1.6-.74,2.44,2.44,0,0,0,.73-1.8,2.28,2.28,0,0,0-.68-1.7,2.25,2.25,0,0,0-1.65-.69h-5.18c-1.32,0-2.56,2.31-2.56,2.31H244a2.25,2.25,0,0,1,1.65.69,2.28,2.28,0,0,1,.68,1.7,1.85,1.85,0,0,1,0,.23Z" transform="translate(-47.04 -41.01)"/><path class="cls-8" d="M252,230a11.87,11.87,0,0,1-4.95,1h-5.64c-1.16,0-2.64,2.31-2.64,2.31h5.63a11.88,11.88,0,0,0,5-1,12.06,12.06,0,0,0,3.78-2.7l.42-.47A13,13,0,0,1,252,230Z" transform="translate(-47.04 -41.01)"/><path class="cls-8" d="M238.6,244h-4.16a2.85,2.85,0,0,1-2.84-2.84V210.12a3.08,3.08,0,0,1,0-.53,2.86,2.86,0,0,0-2.69,2.84v31.08a2.74,2.74,0,0,0,.84,2,2.77,2.77,0,0,0,2,.83H236a2.86,2.86,0,0,0,2.8-2.31Z" transform="translate(-47.04 -41.01)"/></g><path class="cls-5" d="M222.5,236.68c-2.13-4.62-5.73-13.36-13.75-13.36s-11.5,8.74-13.62,13.36c-2,4.38.2,10.28,4.65,10.28,5.64,0,6.45-3.2,9-3.25s3.4,3.25,9,3.25C222.29,247,224.52,241.06,222.5,236.68Z" transform="translate(-47.04 -41.01)"/><path class="cls-5" d="M227,224.13c0-2.71-2.2-6.78-3.92-6.78-1.93,0-3.88,4.07-3.88,6.78,0,2.23,1.64,4.91,3.88,5h0C225.39,229,227,226.36,227,224.13Z" transform="translate(-47.04 -41.01)"/><path class="cls-5" d="M198.39,224.13c0-2.71-2.2-6.78-3.92-6.78-1.93,0-3.88,4.07-3.88,6.78,0,2.23,1.64,4.91,3.88,5h0C196.75,229,198.39,226.36,198.39,224.13Z" transform="translate(-47.04 -41.01)"/><path class="cls-5" d="M218.3,216.68c0-2.71-2.2-6.78-3.92-6.78-1.93,0-3.88,4.07-3.88,6.78,0,2.24,1.65,4.91,3.88,5h0C216.66,221.59,218.3,218.92,218.3,216.68Z" transform="translate(-47.04 -41.01)"/><path class="cls-5" d="M207.13,216.68c0-2.71-2.2-6.78-3.92-6.78-1.93,0-3.88,4.07-3.88,6.78,0,2.24,1.64,4.91,3.88,5h0C205.48,221.59,207.13,218.92,207.13,216.68Z" transform="translate(-47.04 -41.01)"/><g class="cls-9"><path class="cls-8" d="M219.71,243.88c-5.65,0-6.45-3.2-9-3.25s-3.39,3.25-9,3.25c-4.45,0-6.67-5.9-4.66-10.28.61-1.32,1.33-3,2.23-4.68a46.61,46.61,0,0,0-4.1,7.76c-2,4.38.21,10.28,4.65,10.28,5.65,0,6.45-3.2,9-3.25s3.39,3.25,9,3.25c2.51,0,4.31-1.88,5-4.3A4.66,4.66,0,0,1,219.71,243.88Z" transform="translate(-47.04 -41.01)"/><path class="cls-8" d="M225,226.05H225c-2.23-.09-3.87-2.77-3.87-5a9.19,9.19,0,0,1,.61-3.05,9.59,9.59,0,0,0-2.49,6.13c0,2.23,1.65,4.91,3.88,5h0c1.85-.07,3.28-1.91,3.73-3.8A3.25,3.25,0,0,1,225,226.05Z" transform="translate(-47.04 -41.01)"/><path class="cls-8" d="M196.37,226.05h0c-2.24-.09-3.88-2.77-3.88-5a9.19,9.19,0,0,1,.61-3.05,9.59,9.59,0,0,0-2.48,6.13c0,2.23,1.64,4.91,3.87,5h.05c1.84-.07,3.28-1.91,3.72-3.8A3.25,3.25,0,0,1,196.37,226.05Z" transform="translate(-47.04 -41.01)"/><path class="cls-8" d="M216.28,218.6h0c-2.24-.09-3.88-2.76-3.88-5a9.14,9.14,0,0,1,.61-3.05,9.54,9.54,0,0,0-2.48,6.12c0,2.24,1.64,4.91,3.87,5h0c1.84-.07,3.28-1.91,3.72-3.8A3.25,3.25,0,0,1,216.28,218.6Z" transform="translate(-47.04 -41.01)"/><path class="cls-8" d="M205.11,218.6h-.05c-2.23-.09-3.87-2.76-3.87-5a9.37,9.37,0,0,1,.6-3.05,9.59,9.59,0,0,0-2.48,6.12c0,2.24,1.65,4.91,3.88,5h0c1.85-.07,3.28-1.91,3.73-3.8A3.25,3.25,0,0,1,205.11,218.6Z" transform="translate(-47.04 -41.01)"/></g><path class="cls-10" d="M353.69,252.92S348,235,331.15,226.18s-11-29.82-10.6-34.24c0,0,6.91,18.81,16.35,23,17,7.52,43.75,27,32.26,62.76C369.16,277.67,351.92,266.62,353.69,252.92Z" transform="translate(-47.04 -41.01)"/><path class="cls-11" d="M306.86,379.77h10.51c12.19-.76,8.33-10.39,11.27-16.54,3.7-7.74,8.7-22.37,9.71-28.57.63-3.85-4-6.15-3.07-8.34,15.38-38,6-69.48-19.58-73.35-12.28-1.85-27,8-29.6,20-2.82,13.14-5.86,44.51,20.41,60.47,18,11,6.07,30,6.07,30C301.19,363.39,295.42,379.77,306.86,379.77Z" transform="translate(-47.04 -41.01)"/><path class="cls-12" d="M322,379.74c4.05,0,5.89-3,4.08-6.58A14.69,14.69,0,0,0,311.49,363a14.92,14.92,0,0,0-14.6,10.21c-1.81,3.62,0,6.58,4.08,6.58Z" transform="translate(-47.04 -41.01)"/><path class="cls-13" d="M307.42,363.73c-.47,1.52-.9,2.87-1.22,4.2a17.52,17.52,0,0,0-.55,3.82,13,13,0,0,0,.48,3.71,38.7,38.7,0,0,0,1.46,4,6.78,6.78,0,0,1-3.26-2.87,9.18,9.18,0,0,1-1.27-4.93,10.26,10.26,0,0,1,1.31-4.81A7.64,7.64,0,0,1,307.42,363.73Z" transform="translate(-47.04 -41.01)"/><path class="cls-13" d="M316,363.73c.47,1.52.9,2.87,1.22,4.2a18.15,18.15,0,0,1,.55,3.82,13,13,0,0,1-.48,3.71,38.7,38.7,0,0,1-1.46,4,6.78,6.78,0,0,0,3.26-2.87,9.18,9.18,0,0,0,1.27-4.93,10.26,10.26,0,0,0-1.31-4.81A7.7,7.7,0,0,0,316,363.73Z" transform="translate(-47.04 -41.01)"/><path class="cls-11" d="M209.74,335.74c-3.57,5.85-6.63,13.92-10.44,19.72-2.32,3.55-7.79,9.78-21.38,9.78-7.78,0-8.87,12.93-9.19,16.4h34.71c13.59,0,21.08-19.58,24-25.68,3.18-6.55,13.09-26,13.09-26C222,326,215.21,326.79,209.74,335.74Z" transform="translate(-47.04 -41.01)"/><path class="cls-12" d="M188.22,384.18c4.05,0,5.89-3,4.08-6.59,0,0-2.74-10.2-14.6-10.2a14.91,14.91,0,0,0-14.59,10.2c-1.81,3.63,0,6.59,4.08,6.59Z" transform="translate(-47.04 -41.01)"/><path class="cls-13" d="M173.64,368.17c-.47,1.51-.9,2.87-1.22,4.2a16.93,16.93,0,0,0-.55,3.82,12.85,12.85,0,0,0,.48,3.7,38,38,0,0,0,1.46,4,6.8,6.8,0,0,1-3.27-2.87,9.27,9.27,0,0,1-1.26-4.93,10.34,10.34,0,0,1,1.3-4.81A7.66,7.66,0,0,1,173.64,368.17Z" transform="translate(-47.04 -41.01)"/><path class="cls-13" d="M182.17,368.17c.47,1.51.89,2.87,1.22,4.2a17.48,17.48,0,0,1,.54,3.82,12.49,12.49,0,0,1-.47,3.7,38,38,0,0,1-1.46,4,6.78,6.78,0,0,0,3.26-2.87,9.18,9.18,0,0,0,1.27-4.93,10.23,10.23,0,0,0-1.31-4.81A7.7,7.7,0,0,0,182.17,368.17Z" transform="translate(-47.04 -41.01)"/><path class="cls-14" d="M226.31,294.46S264,292.58,282,271.59c16.84-19.63,32.15-30.16,51-28.17,37.26,3.92,43.42,38.11,23.86,69.27-7.77,12.38-39.77,33.91-63.3,43.19-15.77,6.22-50.71,14.47-70.81,7.07Z" transform="translate(-47.04 -41.01)"/><path class="cls-15" d="M293.92,355.88c23.53-9.28,55.53-30.81,63.31-43.19,9.68-15.44,11.21-30.88,7.62-43.75-11.09,33-47,51.47-66.29,68.6-20.55,18.23-88.49,14.92-88.49,14.92-4.77,5,11,11.24,22.33,12.92C252.65,368.11,280.46,361.19,293.92,355.88Z" transform="translate(-47.04 -41.01)"/><path class="cls-10" d="M333,243.42c-18.89-2-34.2,8.54-51,28.17-15.89,18.52-47.07,22.16-54.2,22.76,1.17,1.74,2.47,3.54,3.94,5.41,0,0,62.75,3.54,83.07-13.26,18.09-14.94,34.08-20.42,52.94-9a21,21,0,0,0-.57-13.87C362.64,252.33,350.1,245.21,333,243.42Z" transform="translate(-47.04 -41.01)"/><path class="cls-14" d="M257.14,338.06c-3.58,5.85-6.64,13.92-10.44,19.72-2.33,3.55-7.79,9.78-21.38,9.78-7.79,0-8.88,12.93-9.2,16.4h34.72c13.59,0,21.07-19.58,24-25.68,3.17-6.55,13.09-26,13.09-26C269.4,328.29,262.6,329.11,257.14,338.06Z" transform="translate(-47.04 -41.01)"/><path class="cls-12" d="M235.62,384.18c4,0,5.88-3,4.08-6.59,0,0-2.74-10.2-14.6-10.2a14.92,14.92,0,0,0-14.6,10.2c-1.8,3.63,0,6.59,4.08,6.59Z" transform="translate(-47.04 -41.01)"/><path class="cls-13" d="M221,368.17c-.47,1.51-.9,2.87-1.22,4.2a17.48,17.48,0,0,0-.54,3.82,12.49,12.49,0,0,0,.47,3.7,38,38,0,0,0,1.46,4,6.78,6.78,0,0,1-3.26-2.87,9.18,9.18,0,0,1-1.27-4.93,10.23,10.23,0,0,1,1.31-4.81A7.7,7.7,0,0,1,221,368.17Z" transform="translate(-47.04 -41.01)"/><path class="cls-13" d="M229.56,368.17c.47,1.51.9,2.87,1.22,4.2a17.52,17.52,0,0,1,.55,3.82,12.85,12.85,0,0,1-.48,3.7,38,38,0,0,1-1.46,4,6.74,6.74,0,0,0,3.26-2.87,9.18,9.18,0,0,0,1.27-4.93,10.23,10.23,0,0,0-1.31-4.81A7.58,7.58,0,0,0,229.56,368.17Z" transform="translate(-47.04 -41.01)"/><path class="cls-16" d="M196.7,295.05a61.56,61.56,0,0,0-12.33,7.28c-6.92,5.31-14.46,11.66-18.32,16.87-3.42,4.61-4.23,7.71-1.54,12.11,4.68,7.69,15.92,26.45,21.93,36.51,2.4,4,5.64,5,7.72,2.32,4-5.19,9.53-14.36,7.54-23.57C198.67,332.58,196.7,295.05,196.7,295.05Z" transform="translate(-47.04 -41.01)"/><path class="cls-17" d="M252.36,317.75,240.89,292l-9.32-5.51a51.46,51.46,0,0,0-6.84,1c-3.39,1.26-9,4.05-12.55,4.93v0c-3.5.92-9.79,1.19-13.37,1.73-1.47.22-9.74,4.44-12,11.74-2.07,6.73,2.34,28.07,2.34,28.07-1.13,4.57-1,18.11,7.72,21.17,14.05,4.94,18.28,10.39,28.8,7.69l4.29-1.1v0l4.28-1.1c10.52-2.7,11.61-9.51,21.54-20.61C262,333.14,255.56,321.2,252.36,317.75Z" transform="translate(-47.04 -41.01)"/><path class="cls-12" d="M228.56,329.45l-13-38.14c-.81.3-2.46.82-3.31,1.07a17.75,17.75,0,0,1-3.32.7l6.81,39.85c-7.49,3.81-13.41,10.52-11.74,17,1,3.9,8.43,11.14,12.06,13a18.69,18.69,0,0,0,9.63-.17l4.28-1.1v0l4.28-1.1a18.56,18.56,0,0,0,8.51-4.49c2.28-3.41,5-15,4-18.85C245,330.79,236.85,328.76,228.56,329.45Z" transform="translate(-47.04 -41.01)"/><path class="cls-10" d="M241.56,317c.58,2.28-.11,4.43-1.56,4.8s-3.09-1.17-3.68-3.45.12-4.42,1.56-4.79S241,314.75,241.56,317Z" transform="translate(-47.04 -41.01)"/><path class="cls-10" d="M203.53,326.79c.58,2.28-.12,4.43-1.56,4.8s-3.09-1.17-3.68-3.45.11-4.42,1.56-4.8S202.94,324.52,203.53,326.79Z" transform="translate(-47.04 -41.01)"/><path class="cls-16" d="M231.26,286.55s.36-.06,11.59-.72a99.48,99.48,0,0,1,25,1.55c5.39,1.07,6.57,8.07,6.45,13.29-.24,10,0,32.51.11,42.51,0,3.07-3.22,4.85-7.41,3.85-6.36-1.51-14.8-5.08-16.94-13.44-5.29-20.6-7.06-27.29-10-38.52C238.84,290.28,231.26,286.55,231.26,286.55Z" transform="translate(-47.04 -41.01)"/><path class="cls-10" d="M210.3,333.15c0-3.09,4.53-5,10.47-6.53,7.2-1.84,10.83-2,12.17.71,1.57,3.22-3.72,10.81-9.3,12.24C219.1,340.74,210.34,336.88,210.3,333.15Z" transform="translate(-47.04 -41.01)"/><path class="cls-10" d="M249.2,336.78a.12.12,0,0,0-.16.05h0a42.5,42.5,0,0,1-4.32,6.43,24,24,0,0,1-2.65,2.78,10.68,10.68,0,0,1-3.13,2,6.32,6.32,0,0,1-.85.24,6.91,6.91,0,0,1-.91.15,9.22,9.22,0,0,1-1.82,0,12.25,12.25,0,0,1-3.55-.93,18.79,18.79,0,0,1-3.27-1.77c-.51-.34-1-.71-1.5-1.1-.24-.19-.48-.38-.71-.59s-.47-.41-.65-.6a1.06,1.06,0,0,0-.46-.27c-.1,0-.83-4.75-.83-4.75l-1.86.48s1.42,4.72,1.34,5v0c-.08.25-.18.56-.29.84s-.22.57-.33.86c-.24.57-.51,1.13-.79,1.68a18.46,18.46,0,0,1-2,3.12,12.27,12.27,0,0,1-2.67,2.52,8.76,8.76,0,0,1-1.59.87,6.8,6.8,0,0,1-.86.31l-.11,0-.11,0-.21.05-.44.08a10.52,10.52,0,0,1-3.69-.24,25.47,25.47,0,0,1-3.66-1.16,42.08,42.08,0,0,1-6.86-3.56h0a.16.16,0,0,0-.22,0,.16.16,0,0,0,0,.23,42.5,42.5,0,0,0,6.73,4,24.46,24.46,0,0,0,3.72,1.43,11.79,11.79,0,0,0,4.09.49l.54-.06.27-.05.13,0,.13,0a8.57,8.57,0,0,0,1-.3,11.51,11.51,0,0,0,1.91-.9,14.2,14.2,0,0,0,3.19-2.67,20.65,20.65,0,0,0,2.4-3.29c.35-.58.67-1.18,1-1.78.07-.16.14-.32.22-.47l.41.3c.55.39,1.12.75,1.71,1.09a20.69,20.69,0,0,0,3.69,1.72,14,14,0,0,0,4.07.8,11.4,11.4,0,0,0,2.11-.13c.35-.06.7-.14,1-.23a6.87,6.87,0,0,0,1-.37,11.66,11.66,0,0,0,3.34-2.41,24.53,24.53,0,0,0,2.57-3,43.6,43.6,0,0,0,3.95-6.75A.13.13,0,0,0,249.2,336.78Z" transform="translate(-47.04 -41.01)"/><path class="cls-14" d="M336.47,384.18H347c12.2-.75,8.34-10.38,11.28-16.53,3.7-7.74,8.7-22.37,9.71-28.57.63-3.86-3.95-6.15-3.07-8.34,15.38-38,6-69.48-19.58-73.35-12.28-1.85-27,8-29.6,20-2.83,13.14-5.86,44.51,20.41,60.47,18,10.95,6.07,30,6.07,30C330.8,367.81,325,384.18,336.47,384.18Z" transform="translate(-47.04 -41.01)"/><path class="cls-18" d="M342.42,326.5c-16.79-9.73-22.09-44.2-14-65.33-6.31,3.71-11.37,9.62-12.78,16.18-2.83,13.14-5.86,44.51,20.41,60.47,18,10.95,6.07,30,6.07,30a12.18,12.18,0,0,0-10,5.44c5.24,4.25,9.9,6.6,12.11,4.06C350.89,369.69,361.31,337.43,342.42,326.5Z" transform="translate(-47.04 -41.01)"/><path class="cls-12" d="M351.61,384.17c4.05,0,5.89-3,4.08-6.59a14.69,14.69,0,0,0-14.6-10.21,14.91,14.91,0,0,0-14.59,10.21c-1.81,3.62,0,6.59,4.07,6.59Z" transform="translate(-47.04 -41.01)"/><path class="cls-13" d="M337,368.15c-.47,1.52-.89,2.87-1.21,4.2a16.93,16.93,0,0,0-.55,3.82,12.85,12.85,0,0,0,.48,3.7,36.64,36.64,0,0,0,1.46,4,6.78,6.78,0,0,1-3.27-2.88,9.3,9.3,0,0,1-1.27-4.92,10.35,10.35,0,0,1,1.32-4.81A7.62,7.62,0,0,1,337,368.15Z" transform="translate(-47.04 -41.01)"/><path class="cls-13" d="M345.56,368.15c.47,1.52.89,2.87,1.22,4.2a17.48,17.48,0,0,1,.54,3.82,12.49,12.49,0,0,1-.47,3.7,41.28,41.28,0,0,1-1.46,4,6.76,6.76,0,0,0,3.26-2.88,9.12,9.12,0,0,0,1.27-4.92,10.46,10.46,0,0,0-1.31-4.81A7.7,7.7,0,0,0,345.56,368.15Z" transform="translate(-47.04 -41.01)"/><path class="cls-12" d="M331.15,226.18c.14.06,3.87-2.65,4.78-4.39,2.15-4.1,1.69-6.44,1-6.88-9.75-5.88-16.79-24.85-16.79-24.85C319.66,194.48,310.16,217.15,331.15,226.18Z" transform="translate(-47.04 -41.01)"/><path class="cls-19" d="M156.9,376.06h-7.54c-8.74-.54-6-7.44-8.08-11.85-13.54-28.34-1.46-41.86,7.56-40.19,5.25,1,8.58,6.85,7.6,12.57-1.38,8.07-3.65,27.73-3.65,27.73C161,364.32,165.1,376.06,156.9,376.06Z" transform="translate(-47.04 -41.01)"/><path class="cls-20" d="M161,373.77a2.68,2.68,0,0,0-.22-1.56,3.37,3.37,0,0,0-1-1.27,2.83,2.83,0,0,0-3.05-.44c.46.3.86.53,1.21.77a11,11,0,0,1,1,.73c.32.25.63.52,1,.81S160.56,373.42,161,373.77Z" transform="translate(-47.04 -41.01)"/><path class="cls-20" d="M158,375.83a2.52,2.52,0,0,0,.06-1.58,3.24,3.24,0,0,0-.8-1.4,2.76,2.76,0,0,0-3-.69c.44.34.81.59,1.15.85s.61.52.89.79.53.58.8.91Z" transform="translate(-47.04 -41.01)"/><path class="cls-19" d="M103,374.33H95.45c-8.74-.54-6-7.45-8.08-11.86-2.66-5.55-5-7.88-5.69-12.32-.45-2.76,2.84-4.41,2.2-6-11-27.24,6.53-34.39,13.12-34,6.21.34,14.78,3.5,16.63,12.08,2,9.42-1.36,18.06-9.37,21.78-13.71,6.37-5.38,18.59-5.38,18.59C107,362.59,111.18,374.33,103,374.33Z" transform="translate(-47.04 -41.01)"/><path class="cls-20" d="M106.76,371.91a2.64,2.64,0,0,0-.22-1.57,3.39,3.39,0,0,0-1-1.26,2.85,2.85,0,0,0-3.06-.44c.47.3.86.53,1.22.77s.67.47,1,.72.63.52,1,.82S106.34,371.56,106.76,371.91Z" transform="translate(-47.04 -41.01)"/><path class="cls-20" d="M103.82,374a2.48,2.48,0,0,0,.06-1.57,3.09,3.09,0,0,0-.8-1.4,2.71,2.71,0,0,0-3-.69c.43.33.81.58,1.14.85a11.61,11.61,0,0,1,.89.79c.27.28.53.58.81.91Z" transform="translate(-47.04 -41.01)"/><path class="cls-21" d="M56.06,319.18c0-8.52,9.1-28.74,28.15-25.56,8.71,1.45,12.66,5.61,23.41,9.51,13.62,4.93,20-1.65,20-1.65l32.25,8.1c3.11,21.75-9.63,45.6-51.17,45.6C83.42,355.18,56.06,345.85,56.06,319.18Z" transform="translate(-47.04 -41.01)"/><path class="cls-21" d="M62.83,311.94a4.51,4.51,0,0,0,2-8.58c-.15-.08-8.85-4.41-6.75-10,.41-1.1,1-2.45,1.63-4,2.48-5.94,5.88-14.08,6.79-22.24,1.49-13.47-4.81-20.19-10.36-23.46a4.51,4.51,0,0,0-4.58,7.78c10.51,6.2,5.42,21-.19,34.45-.68,1.64-1.28,3.06-1.75,4.32-4,10.69,5.65,18.61,11.32,21.31A4.46,4.46,0,0,0,62.83,311.94Z" transform="translate(-47.04 -41.01)"/><path class="cls-19" d="M64.88,274.84a9.52,9.52,0,0,1-4.63,2.71c-2.54.68-5.37-.9-5.37-.9,3.55-10.48,4.76-20.44-3.37-25.23a4.51,4.51,0,0,1,4.58-7.78c5.55,3.27,11.85,10,10.36,23.46A35.56,35.56,0,0,1,64.88,274.84Z" transform="translate(-47.04 -41.01)"/><path class="cls-22" d="M59.12,333.19c20.38,15.8,46,10.78,65.76,6C146.1,334,144.66,307.44,145.52,306l14.35,3.61c3.11,21.75-9.63,45.6-51.17,45.6C88.48,355.18,66.94,349.22,59.12,333.19Z" transform="translate(-47.04 -41.01)"/><path class="cls-21" d="M79.28,375.68H71.74c-8.74-.54-6-7.44-8.08-11.85C61,358.28,58.71,356,58,351.51c-.45-2.77,2.84-4.42,2.2-6-11-27.24,6.52-34.4,13.11-34,6.21.34,14.79,3.5,16.63,12.08,2,9.42-1.35,18.06-9.36,21.79-13.71,6.37-5.38,18.58-5.38,18.58C83.34,363.94,87.48,375.68,79.28,375.68Z" transform="translate(-47.04 -41.01)"/><path class="cls-20" d="M83.06,373.26a2.6,2.6,0,0,0-.22-1.56,3.37,3.37,0,0,0-1-1.27,2.85,2.85,0,0,0-3-.44c.46.3.86.53,1.21.77s.68.48,1,.73.62.52,1,.82S82.64,372.91,83.06,373.26Z" transform="translate(-47.04 -41.01)"/><path class="cls-20" d="M80.12,375.32a2.49,2.49,0,0,0,.06-1.57,3.22,3.22,0,0,0-.8-1.41,2.76,2.76,0,0,0-3-.69c.44.34.81.59,1.15.85a9.89,9.89,0,0,1,.89.8,10.59,10.59,0,0,1,.8.91Z" transform="translate(-47.04 -41.01)"/><path class="cls-21" d="M138.12,384.18h-7.53c-8.74-.54-6-7.44-8.08-11.85C109,344,121,330.48,130.07,332.15c5.24,1,8.58,6.85,7.6,12.56-1.38,8.08-3.65,27.74-3.65,27.74C142.19,372.45,146.32,384.18,138.12,384.18Z" transform="translate(-47.04 -41.01)"/><path class="cls-20" d="M142.2,381.9a2.71,2.71,0,0,0-.21-1.57,3.54,3.54,0,0,0-1-1.27,2.87,2.87,0,0,0-3-.44c.46.31.85.54,1.21.78a11,11,0,0,1,1,.72c.32.26.63.52,1,.82S141.79,381.55,142.2,381.9Z" transform="translate(-47.04 -41.01)"/><path class="cls-20" d="M139.26,384a2.52,2.52,0,0,0,.06-1.58,3.16,3.16,0,0,0-.79-1.4,2.73,2.73,0,0,0-3-.69c.44.33.81.59,1.14.85a10,10,0,0,1,.89.79c.27.28.54.58.81.91Z" transform="translate(-47.04 -41.01)"/><path class="cls-23" d="M127.19,301.86a2.49,2.49,0,0,0,.43-.38l32.25,8.1c.31,2.14.19,4.2.44,6.35,0,.31-8.92,2-15.8-.32C130.12,310.77,126.69,302.25,127.19,301.86Z" transform="translate(-47.04 -41.01)"/><path class="cls-21" d="M132.58,283.81s-3.35-14.85,3.48-19.49c0,0,10.83,2,13.82,10.29A26.08,26.08,0,0,1,132.58,283.81Z" transform="translate(-47.04 -41.01)"/><path class="cls-22" d="M136.51,282.18s-2.13-9.43,2.2-12.37c0,0,6.88,1.26,8.78,6.53A16.5,16.5,0,0,1,136.51,282.18Z" transform="translate(-47.04 -41.01)"/><path class="cls-21" d="M176.65,293.37s9.2-12.13,4.91-19.18c0,0-10.69-2.68-16.85,3.64A26.08,26.08,0,0,0,176.65,293.37Z" transform="translate(-47.04 -41.01)"/><path class="cls-22" d="M173.75,290.26s5.84-7.7,3.12-12.18c0,0-6.79-1.7-10.7,2.31A16.55,16.55,0,0,0,173.75,290.26Z" transform="translate(-47.04 -41.01)"/><path class="cls-21" d="M127.17,291.91c-5.07,11.82,7.69,19.66,21.78,22.72s29.61,1.18,29.23-11.66c-.43-14.63-9.76-26-20.56-28.34S133.14,278,127.17,291.91Z" transform="translate(-47.04 -41.01)"/><path class="cls-22" d="M153.55,293.72c11.91,2.58,20.26,10.7,18.65,18.12a8.33,8.33,0,0,1-.67,2c-5.76,2.73-14.41,2.61-22.58.84s-16-5.23-20.08-10.14a8.38,8.38,0,0,1,.2-2C130.68,295.06,141.64,291.14,153.55,293.72Z" transform="translate(-47.04 -41.01)"/><path class="cls-20" d="M138.43,287.45c-.37,1.69.21,3.26,1.28,3.49s2.25-.95,2.61-2.64-.2-3.26-1.28-3.5S138.8,285.75,138.43,287.45Z" transform="translate(-47.04 -41.01)"/><path class="cls-20" d="M166.74,293.59c-.37,1.69.21,3.26,1.28,3.49s2.25-.95,2.61-2.65-.2-3.25-1.28-3.49S167.11,291.89,166.74,293.59Z" transform="translate(-47.04 -41.01)"/><path class="cls-24" d="M152.58,310.54l-.25,1.07a2.24,2.24,0,0,1-4.36-1l.24-1a4,4,0,0,0,1.8-1,7.8,7.8,0,0,0,1.28-2.38,8.16,8.16,0,0,0,.11,2.62A2.67,2.67,0,0,0,152.58,310.54Z" transform="translate(-47.04 -41.01)"/><path class="cls-25" d="M149.73,313a6.52,6.52,0,0,0,.4-1c.11-.34.21-.68.29-1s.14-.69.19-1.05a6.35,6.35,0,0,0,.08-1.07,7.19,7.19,0,0,0-.4,1,9.22,9.22,0,0,0-.28,1c-.08.34-.15.69-.2,1.05A6.35,6.35,0,0,0,149.73,313Z" transform="translate(-47.04 -41.01)"/><path class="cls-20" d="M148.54,309.57a2.72,2.72,0,0,0,2.08-1,5.13,5.13,0,0,0,1.08-2.15l1.54-6.63-.88-.21-1.54,6.63A4.15,4.15,0,0,1,150,308a1.84,1.84,0,0,1-1.91.61c-1.63-.38-2-1.48-1.78-2.39l.39-1.68a.44.44,0,0,0-.34-.54.45.45,0,0,0-.54.34l-.39,1.68a2.84,2.84,0,0,0,2.45,3.47A2.92,2.92,0,0,0,148.54,309.57Z" transform="translate(-47.04 -41.01)"/><path class="cls-20" d="M153.92,310.79a2.71,2.71,0,0,0,2.76-2.15l.39-1.68a.47.47,0,0,0-.34-.55.46.46,0,0,0-.54.34l-.4,1.68a1.84,1.84,0,0,1-.74,1.14,2.34,2.34,0,0,1-1.9.23,1.86,1.86,0,0,1-1.45-1.4,4.15,4.15,0,0,1,0-2l1.54-6.63-.88-.2-1.54,6.63a5,5,0,0,0,0,2.41,2.74,2.74,0,0,0,2.11,2A4.37,4.37,0,0,0,153.92,310.79Z" transform="translate(-47.04 -41.01)"/><path class="cls-20" d="M146.47,298.47c-.51,2.22,1.88,4.66,5.34,5.47s6.69-.35,7.2-2.56-1.87-4.67-5.34-5.47S147,296.25,146.47,298.47Z" transform="translate(-47.04 -41.01)"/><path class="cls-20" d="M145.35,296.08a.43.43,0,0,0,.35-.17.45.45,0,0,0-.07-.63c-.12-.1-12.43-9.71-24.72-9.57a.46.46,0,0,0-.45.46.46.46,0,0,0,.46.44h.29c11.85,0,23.74,9.28,23.86,9.38A.47.47,0,0,0,145.35,296.08Z" transform="translate(-47.04 -41.01)"/><path class="cls-20" d="M144.34,297.27a.45.45,0,0,0,.39-.23.45.45,0,0,0-.17-.62c-.14-.08-14.62-8.3-27.19-7.66a.46.46,0,0,0,0,.91c12.3-.63,26.55,7.45,26.69,7.54A.49.49,0,0,0,144.34,297.27Z" transform="translate(-47.04 -41.01)"/><path class="cls-20" d="M143.92,298.79a.45.45,0,0,0,.2-.85,55.75,55.75,0,0,0-25.48-5.08.44.44,0,0,0-.42.47.45.45,0,0,0,.48.43,54.76,54.76,0,0,1,25,5A.52.52,0,0,0,143.92,298.79Z" transform="translate(-47.04 -41.01)"/><path class="cls-20" d="M143.68,300.3a.45.45,0,0,0,.44-.32.46.46,0,0,0-.3-.56c-.11,0-11.31-3.46-21-2.47a.45.45,0,1,0,.09.9c9.53-1,20.55,2.4,20.66,2.43A.3.3,0,0,0,143.68,300.3Z" transform="translate(-47.04 -41.01)"/><path class="cls-20" d="M186.29,306.4a.47.47,0,0,0,.38-.19.45.45,0,0,0-.12-.63c-10.11-7-25.71-5.81-25.86-5.8a.46.46,0,0,0-.42.49.44.44,0,0,0,.49.41c.15,0,15.43-1.13,25.28,5.64A.41.41,0,0,0,186.29,306.4Z" transform="translate(-47.04 -41.01)"/><path class="cls-20" d="M187.42,310.88a.44.44,0,0,0,.36-.18.46.46,0,0,0-.09-.64c-10.09-7.52-26.69-8.74-26.86-8.76a.46.46,0,0,0-.48.42.44.44,0,0,0,.42.48c.16,0,16.51,1.23,26.38,8.59A.46.46,0,0,0,187.42,310.88Z" transform="translate(-47.04 -41.01)"/><path class="cls-20" d="M184.12,313.64a.45.45,0,0,0,.36-.18.45.45,0,0,0-.09-.63c-10.9-8.27-23.87-9.93-24-9.95a.45.45,0,0,0-.11.9,54.78,54.78,0,0,1,23.56,9.77A.49.49,0,0,0,184.12,313.64Z" transform="translate(-47.04 -41.01)"/><path class="cls-20" d="M178.22,314.66a.46.46,0,0,0,.35-.17.45.45,0,0,0-.06-.63c-7.52-6.23-18.73-9.61-18.84-9.64a.46.46,0,0,0-.57.3.45.45,0,0,0,.31.56c.11,0,11.15,3.37,18.53,9.47A.43.43,0,0,0,178.22,314.66Z" transform="translate(-47.04 -41.01)"/></g></g></svg>